<?xml version="1.0" standalone="no"?>
<!DOCTYPE svg PUBLIC "-//W3C//DTD SVG 20010904//EN"
 "http://www.w3.org/TR/2001/REC-SVG-20010904/DTD/svg10.dtd">
<svg version="1.0" xmlns="http://www.w3.org/2000/svg"
 width="64.000000pt" height="64.000000pt" viewBox="0 0 64.000000 64.000000"
 preserveAspectRatio="xMidYMid meet">
<metadata>
Created by potrace 1.11, written by Peter Selinger 2001-2013
</metadata>
<g transform="translate(0.000000,64.000000) scale(0.100000,-0.100000)"
fill="#000000" stroke="none">
<path d="M148 501 c-25 -21 -29 -74 -6 -97 27 -27 66 -27 94 1 20 20 24 32 19
53 -13 54 -66 76 -107 43z"/>
<path d="M283 356 c-149 -149 -155 -157 -141 -178 8 -12 24 -28 36 -36 21 -14
29 -8 168 129 80 79 150 152 155 162 8 14 6 24 -8 39 -45 50 -44 51 -210 -116z"/>
<path d="M405 236 c-39 -39 -19 -101 37 -111 54 -10 96 61 61 103 -27 34 -69
37 -98 8z"/>
</g>
</svg>
