<?xml version="1.0" standalone="no"?>
<!DOCTYPE svg PUBLIC "-//W3C//DTD SVG 20010904//EN"
 "http://www.w3.org/TR/2001/REC-SVG-20010904/DTD/svg10.dtd">
<svg version="1.0" xmlns="http://www.w3.org/2000/svg"
 width="512.000000pt" height="512.000000pt" viewBox="0 0 512.000000 512.000000"
 preserveAspectRatio="xMidYMid meet">
<metadata>
Created by potrace 1.11, written by Peter Selinger 2001-2013
</metadata>
<g transform="translate(0.000000,512.000000) scale(0.100000,-0.100000)"
fill="#000000" stroke="none">
<path d="M1363 4095 c-217 -69 -352 -248 -359 -477 -4 -136 28 -240 105 -339
190 -243 559 -266 779 -47 96 95 143 206 148 351 3 85 0 109 -21 175 -14 42
-35 89 -45 104 -11 15 -20 31 -20 35 0 13 -91 102 -135 133 -128 88 -301 113
-452 65z"/>
<path d="M3490 4014 c-39 -14 -203 -174 -1207 -1178 -1135 -1134 -1162 -1162
-1177 -1215 -20 -70 -20 -106 1 -172 15 -47 34 -71 147 -185 74 -73 148 -139
171 -150 58 -27 166 -26 225 3 33 17 354 332 1197 1175 1150 1151 1152 1153
1168 1211 16 56 18 127 4 157 -4 8 -13 28 -20 45 -21 45 -247 270 -299 296
-56 29 -147 35 -210 13z"/>
<path d="M3433 2011 c-166 -58 -276 -170 -329 -336 -52 -165 -17 -352 93 -486
99 -121 240 -186 404 -187 356 -2 606 349 489 687 -54 157 -163 267 -319 321
-116 40 -227 40 -338 1z"/>
</g>
</svg>
